<?xml version="1.0" encoding="utf-8"?>
<!-- Generator: Adobe Illustrator 25.3.1, SVG Export Plug-In . SVG Version: 6.00 Build 0)  -->
<svg version="1.1" id="Layer_1" xmlns="http://www.w3.org/2000/svg" xmlns:xlink="http://www.w3.org/1999/xlink" x="0px" y="0px"
	 viewBox="0 0 1357 130.1" style="enable-background:new 0 0 1357 130.1;" xml:space="preserve">
<style type="text/css">
	.st0{fill:#009CDB;}
	.st1{fill:#243746;}
	.st2{fill:none;stroke:#0AA7E0;stroke-width:4;}
	.st3{fill:#0AA7E0;}
	.st4{font-family:'ProximaNova-Regular';}
	.st5{font-size:53.7697px;}
	.st6{letter-spacing:2;}
	.st7{font-size:49.1935px;}
	.st8{letter-spacing:1;}
</style>
<polygon class="st0" points="392.7,77 419.6,64.9 392.7,52.8 "/>
<g>
	<path class="st1" d="M254.4,64.9c0,27.1,17.5,45.3,43.6,45.3c8.8,0,15-2.2,20.5-4.2c4.4-1.6,8.2-2.9,12.7-2.9l2.9,0.3l0-0.2V85.7
		c0-8.4,2.3-11.1,9.6-11.1h2.6v-3.4h-38.8v3.4h3.1c7.5,0,9.7,2.3,9.7,10.2v4.5c0,10.4-8,17.1-20.5,17.1c-11.3,0-30.3-5.4-30.3-41.4
		c0-37.4,21.3-41.4,30.4-41.4c19.9,0,29,17.1,30.3,28.6l0,0.2h3.6V22.7h-3.6l-1.4,5.9c-0.3,1.2-0.8,1.7-1.6,1.7
		c-0.8,0-1.7-0.8-2.4-1.4l-0.5-0.4l-0.3-0.2c-3.1-2.4-11.4-8.7-25.3-8.7C269.9,19.6,254.4,43,254.4,64.9z"/>
	<path class="st1" d="M255.5,105.2c-5.7,0-7.9-3.3-9.4-6.9l-4-9.1l-28.8-69.2h-4.2L177.8,94c-2.5,5.9-5.5,11.4-9.8,11.4
		c-2.7,0-4-2-5.9-4.8l-9.5-14.2l-3.8-5.7c-7.4-11.1-11.4-14.3-14.4-15.7c8.7-0.7,24-6.2,24-22.4c0-14.5-13.1-22.8-36.1-22.8
		c-5.1,0-14.5,0.2-22.7,0.6l-12.6,0.7v3.4h4c7.9,0,8.6,3.6,8.9,5.2c0.4,2.1,0.6,6.7,0.6,13.4v42.4c0,7.2-0.2,11.9-0.6,13.9
		c-0.3,1.4-1.1,5.7-8.7,5.7h-4.6v3.5h43v-3.5H124c-8.2,0-8.8-4.4-9.1-6.1c-0.3-2-0.5-6.4-0.5-13.4c0,0,0-18.5,0-18.9
		c0.3,0,1.8,0,1.8,0c7.1,0,10.1,4.2,15.8,13l4,6.2c6.6,10.2,12.4,19.1,14.9,22.6h41v-3.5h-1.1c-5.4,0-8.5-2.6-8.5-7.3
		c0-3.3,2-8.8,5-15.9c0,0,2-4.8,2.1-5c0.2,0,32.9,0,33.2,0c0.1,0.2,6.9,16.8,6.9,16.8c1.6,3.8,2.4,5.9,2.4,7.6
		c0,2.6-2.5,3.9-7.8,3.9h-2.9v3.5h36v-3.5H255.5z M124,62.6l-8.1,0.4c0,0-1.2,0-1.5,0c0-0.4,0-38.7,0-39.1c0.3,0,6.7-0.2,6.7-0.2
		c15.8,0,22.5,5.9,22.5,19.8C143.7,58.1,135.8,61.7,124,62.6z M191,73.1c0.2-0.5,14.7-35.5,15.1-36.3c0.3,0.8,14.7,35.8,14.9,36.3
		C220.5,73.1,191.5,73.1,191,73.1z"/>
	<path class="st1" d="M724.1,21.2v3.4h2.1c8.9,0,12.7,3.5,12.7,11.6c0,0,0,51.1,0,52.2c-0.7-0.9-50.9-67.2-50.9-67.2l-26.2-0.1v3.4
		h0.2c7.3,0,10.1,1.3,11.3,5.2c0.6,2.1,0.9,6.2,0.9,13.4v45.9c0,5.1-0.2,8.6-0.6,10c-0.2,0.6-2,6.1-11.5,6.1h-1.4v3.5h32.6v-3.5h-3
		c-8.7,0-11-4.4-11.5-6.2c-0.5-1.6-0.7-4.9-0.7-9.8c0,0,0-58.1,0-59.2c0.7,0.9,61.2,80.7,61.2,80.7l3.4,0.1h0.2V36.4
		c0-7.8,4.1-11.7,12.2-11.7c0.1,0,0.8,0,0.8,0l0.2,0l0-0.2v-3.3H724.1z"/>
	<path class="st1" d="M578.7,21.2v3.4h2.3c5.5,0,7.7,1.4,8.4,5.5c0.4,2.2,0.6,6.7,0.6,13.1v42.4c0,7.7-0.2,11.9-0.5,13.6
		c-0.9,4.6-3.4,6-10.6,6h-2v3.5h73.5l1.9-27.6h-3.6l0,0.1c-4.2,13.8-8.3,23.6-24.5,23.6h-7.9c-5.7,0-9.3-0.9-10.6-2.7
		c-1.3-1.8-2-7.9-2-18.1c0,0,0-19.3,0-19.7c0.4,0,10,0,10,0c10.8,0,12,2.7,12,13.5v0.2h3.7V47.7h-3.7v0.2c0,11.1-1.8,12.9-12.9,12.9
		c0,0-8.7,0-9.1,0c0-0.4,0-35.6,0-35.9c0.4,0,15.5,0,15.5,0c16,0,18.2,6.1,21.5,18.6l0,0.1h3.6l-2-22.4H578.7z"/>
	<path class="st1" d="M539.6,21.2c0,0-30.7,69.5-31.1,70.2c-0.3-0.8-31.1-70.2-31.1-70.2h-28.1v3.4h5.5c4.7,0,7.4,1.7,8.1,5.2
		c0.4,1.9,0.6,6.3,0.6,13.4v37.6c0,7.3-0.2,12.1-0.8,14.8c-0.2,1-2.2,9.6-12.7,9.6h-0.7v3.5h31.9v-3.5h-1.9
		c-6.5,0-10.3-3.3-11.4-9.8c-0.4-2.5-0.6-7.3-0.6-14.2c0,0,0-48.2,0-50c0.7,1.6,34.3,77.4,34.3,77.4h3.6c0,0,33.3-75.4,34-77
		c0,1.7,0,54,0,54c0,7-0.1,11.5-0.6,13.5c-0.7,2.6-2.4,6.1-10.3,6.1h-3.3v3.5h42.2v-3.5H564c-9.2,0-10-4.4-10.4-6.5
		c-0.4-2.2-0.5-6.6-0.5-13V43.2c0-7.2,0.2-11.8,0.7-13.7c0.8-3.3,3.5-4.9,8.4-4.9h5.2v-3.4H539.6z"/>
	<path class="st1" d="M10,21.2v3.4h3.2c3.6,0,6.6,0.2,8.3,2.1c2,2.3,2,7.6,2,11.5l0,47.4c0,8.1-0.2,12.1-0.6,13.9
		c-0.6,2.3-1.4,5.7-9.5,5.7H9.7v3.5h41.6v-3.5H47c-7.3,0-8.8-3.1-9.3-6.1c-0.3-2-0.5-6.4-0.5-13.5c0,0,0-20.6,0-21
		c0.4,0,9.5,0,9.5,0c10.2,0,12,4.8,12,14.2V79h3.7V47.7h-3.7v0.2c0,10.3-2.9,13.1-13.3,13.1c0,0-7.8,0-8.2,0c0-0.4,0-35.8,0-36.1
		c0.4,0,20.8,0,20.8,0c10.5,0,16.6,6.1,18.2,18.2l0,0.2h3.6l-0.7-22H10z"/>
	<path class="st1" d="M399.6,19.6c12.6,0,23.3,4.1,31.7,12.2c8.5,8.2,13,19,13.1,31.9l0,0.3L429,57.9l0-0.1
		c-1.1-15.6-7.2-34.3-29.6-34.3c-26.2,0-30.1,25.9-30.1,41.4c0,12.5,2.8,41.4,29.1,41.4c18.5,0,28.8-11.3,30.5-33.6l0-0.1l15.3-6.7
		l0,0.3c0.5,8.1-3.2,21.3-12.2,30.9c-8.2,8.7-19.2,13.1-32.7,13.1c-31.2,0-45.1-22.8-45.1-45.4C354.3,33.6,377,19.6,399.6,19.6z"/>
</g>
<line class="st2" x1="818.4" y1="13" x2="818.4" y2="117"/>
<text transform="matrix(1 0 0 1 877.1628 57.0808)"><tspan x="0" y="0" class="st3 st4 st5 st6">Immigration Alerts</tspan><tspan x="-0.4" y="53.8" class="st3 st4 st7 st8">Management System</tspan></text>
</svg>
